<svg width="32" height="32" viewBox="0 0 32 32" fill="none" xmlns="http://www.w3.org/2000/svg">
<circle cx="16" cy="16" r="16" fill="#F3F6FD"/>
<path fill-rule="evenodd" clip-rule="evenodd" d="M18.5 11.75C18.5 13.96 16.71 15.75 14.5 15.75C12.29 15.75 10.5 13.96 10.5 11.75C10.5 9.54 12.29 7.75 14.5 7.75C16.71 7.75 18.5 9.54 18.5 11.75ZM16.5 11.75C16.5 10.65 15.6 9.75 14.5 9.75C13.4 9.75 12.5 10.65 12.5 11.75C12.5 12.85 13.4 13.75 14.5 13.75C15.6 13.75 16.5 12.85 16.5 11.75ZM8.5 21.75C8.7 21.12 11.07 20.07 13.46 19.81L15.5 17.81C15.11 17.77 14.82 17.75 14.5 17.75C11.83 17.75 6.5 19.09 6.5 21.75V23.75H15.5L13.5 21.75H8.5ZM18.97 21.42L24.1 16.25L25.5 17.66L18.97 24.25L15.5 20.75L16.9 19.34L18.97 21.42Z" fill="#9CAAB5"/>
</svg>
