<svg width="32" height="32" viewBox="0 0 32 32" fill="none" xmlns="http://www.w3.org/2000/svg">
<g id="atom/icon/clip">
<path id="icon/editor/attach_file_24px" d="M25.4281 14.1143L14.5858 24.9566C12.5022 27.0402 9.12692 27.0402 7.04331 24.9566C4.9597 22.873 4.9597 19.4978 7.04331 17.4142L18.8284 5.62905C20.1295 4.32798 22.2414 4.32798 23.5425 5.62905C24.8435 6.93013 24.8435 9.04202 23.5425 10.3431L13.643 20.2426C13.1244 20.7611 12.2759 20.7611 11.7574 20.2426C11.2388 19.724 11.2388 18.8755 11.7574 18.357L20.714 9.40029L19.2998 7.98608L10.3431 16.9428C9.04207 18.2438 9.04207 20.3557 10.3431 21.6568C11.6442 22.9579 13.7561 22.9579 15.0572 21.6568L24.9567 11.7573C27.0403 9.6737 27.0403 6.29845 24.9567 4.21484C22.8731 2.13123 19.4978 2.13123 17.4142 4.21484L5.6291 16C2.76296 18.8661 2.76296 23.5047 5.6291 26.3709C8.49524 29.237 13.1339 29.237 16 26.3709L26.8423 15.5285L25.4281 14.1143Z" fill="#9CAAB5"/>
</g>
</svg>
