<svg width="32" height="32" viewBox="0 0 32 32" fill="none" xmlns="http://www.w3.org/2000/svg">
<g id="atom/icon/emoji">
<path id="icon/editor/insert_emoticon_24px" fill-rule="evenodd" clip-rule="evenodd" d="M15.9867 2.66669C8.62667 2.66669 2.66667 8.64002 2.66667 16C2.66667 23.36 8.62667 29.3334 15.9867 29.3334C23.36 29.3334 29.3333 23.36 29.3333 16C29.3333 8.64002 23.36 2.66669 15.9867 2.66669ZM16 26.6667C10.1067 26.6667 5.33334 21.8934 5.33334 16C5.33334 10.1067 10.1067 5.33335 16 5.33335C21.8933 5.33335 26.6667 10.1067 26.6667 16C26.6667 21.8934 21.8933 26.6667 16 26.6667ZM22.6667 12.6667C22.6667 13.7734 21.7733 14.6667 20.6667 14.6667C19.56 14.6667 18.6667 13.7734 18.6667 12.6667C18.6667 11.56 19.56 10.6667 20.6667 10.6667C21.7733 10.6667 22.6667 11.56 22.6667 12.6667ZM11.3333 14.6667C12.44 14.6667 13.3333 13.7734 13.3333 12.6667C13.3333 11.56 12.44 10.6667 11.3333 10.6667C10.2267 10.6667 9.33334 11.56 9.33334 12.6667C9.33334 13.7734 10.2267 14.6667 11.3333 14.6667ZM22.8133 18.6667C21.7467 21.3867 19.1067 23.3334 16 23.3334C12.8933 23.3334 10.2533 21.3867 9.18667 18.6667H22.8133Z" fill="#9CAAB5"/>
</g>
</svg>
