<svg width="16" height="16" viewBox="0 0 16 16" fill="none" xmlns="http://www.w3.org/2000/svg">
<path fill-rule="evenodd" clip-rule="evenodd" d="M8 0.179688C3.625 0.179688 0.234375 3.38438 0.234375 7.7125C0.234375 9.97656 1.1625 11.9328 2.67344 13.2844C2.8 13.3984 2.87656 13.5562 2.88281 13.7266L2.925 15.1078C2.93906 15.5484 3.39375 15.8344 3.79688 15.6578L5.3375 14.9781C5.46875 14.9203 5.61406 14.9094 5.75156 14.9469C6.45937 15.1422 7.21406 15.2453 8 15.2453C12.375 15.2453 15.7656 12.0406 15.7656 7.7125C15.7656 3.38438 12.375 0.179688 8 0.179688Z" fill="url(#paint0_linear)"/>
<path fill-rule="evenodd" clip-rule="evenodd" d="M3.33748 9.91561L5.61873 6.29687C5.98123 5.72187 6.75935 5.57813 7.3031 5.98594L9.11716 7.34687C9.28435 7.47187 9.51248 7.47031 9.6781 7.34531L12.1281 5.48594C12.4547 5.2375 12.8828 5.62969 12.6625 5.97656L10.3828 9.59373C10.0203 10.1687 9.24216 10.3125 8.69841 9.90467L6.88435 8.54374C6.71716 8.41874 6.48904 8.4203 6.32341 8.5453L3.87185 10.4062C3.54529 10.6547 3.11716 10.2625 3.33748 9.91561Z" fill="white"/>
<defs>
<linearGradient id="paint0_linear" x1="8" y1="0.179688" x2="8" y2="15.7109" gradientUnits="userSpaceOnUse">
<stop stop-color="#00B2FF"/>
<stop offset="1" stop-color="#006AFF"/>
</linearGradient>
</defs>
</svg>
