<svg width="24" height="24" viewBox="0 0 24 24" fill="none" xmlns="http://www.w3.org/2000/svg">
<path d="M22.5 21.4425L16.8375 15.75C18.1912 14.1167 18.8637 12.0246 18.7153 9.90841C18.5669 7.79221 17.609 5.8145 16.0406 4.38606C14.4722 2.95763 12.4138 2.18826 10.293 2.23776C8.17218 2.28726 6.15193 3.15183 4.65188 4.65188C3.15182 6.15194 2.28725 8.17219 2.23775 10.293C2.18825 12.4138 2.95762 14.4722 4.38606 16.0406C5.81449 17.609 7.7922 18.5669 9.90841 18.7153C12.0246 18.8637 14.1166 18.1912 15.75 16.8375L21.4425 22.5L22.5 21.4425ZM3.74999 10.5C3.74999 9.16498 4.14587 7.85993 4.88757 6.7499C5.62927 5.63987 6.68348 4.7747 7.91688 4.26381C9.15028 3.75292 10.5075 3.61925 11.8169 3.8797C13.1262 4.14015 14.329 4.78302 15.273 5.72703C16.217 6.67103 16.8598 7.87377 17.1203 9.18314C17.3807 10.4925 17.2471 11.8497 16.7362 13.0831C16.2253 14.3165 15.3601 15.3707 14.2501 16.1124C13.1401 16.8541 11.835 17.25 10.5 17.25C8.70978 17.25 6.99289 16.5388 5.72702 15.273C4.46115 14.0071 3.74999 12.2902 3.74999 10.5Z" fill="#9CAAB5"/>
</svg>
