<svg width="16" height="16" viewBox="0 0 16 16" fill="none" xmlns="http://www.w3.org/2000/svg">
<path d="M8 16C12.4183 16 16 12.4183 16 8C16 3.58172 12.4183 0 8 0C3.58172 0 0 3.58172 0 8C0 12.4183 3.58172 16 8 16Z" fill="url(#paint0_linear)"/>
<path fill-rule="evenodd" clip-rule="evenodd" d="M3.62124 7.91554C5.9534 6.89946 7.50855 6.22959 8.28666 5.90595C10.5083 4.98187 10.97 4.82135 11.2709 4.81605C11.3371 4.81488 11.485 4.83129 11.5809 4.90906C11.6618 4.97473 11.6841 5.06345 11.6947 5.12571C11.7054 5.18797 11.7187 5.32981 11.7081 5.44064C11.5877 6.70563 11.0668 9.77542 10.8018 11.1922C10.6896 11.7917 10.4688 11.9927 10.255 12.0124C9.79046 12.0552 9.43769 11.7054 8.98772 11.4104C8.28362 10.9489 7.88584 10.6616 7.20239 10.2112C6.41254 9.69068 6.92457 9.40461 7.3747 8.93708C7.4925 8.81473 9.53943 6.95289 9.57905 6.78399C9.584 6.76287 9.5886 6.68413 9.54182 6.64256C9.49505 6.60098 9.42601 6.6152 9.37619 6.6265C9.30557 6.64253 8.18075 7.38599 6.00174 8.85688C5.68247 9.07612 5.39328 9.18294 5.13417 9.17734C4.84853 9.17117 4.29907 9.01584 3.8906 8.88306C3.3896 8.72021 2.99142 8.6341 3.02609 8.35753C3.04415 8.21347 3.24253 8.06614 3.62124 7.91554Z" fill="white"/>
<defs>
<linearGradient id="paint0_linear" x1="8" y1="0" x2="8" y2="15.8813" gradientUnits="userSpaceOnUse">
<stop stop-color="#2AABEE"/>
<stop offset="1" stop-color="#229ED9"/>
</linearGradient>
</defs>
</svg>
