<svg width="16" height="16" viewBox="0 0 16 16" fill="none" xmlns="http://www.w3.org/2000/svg">
<path d="M0.0668902 7.9567C0.066375 9.34909 0.433116 10.7083 1.13022 11.9063L0 16L4.2232 14.9015C5.38676 15.531 6.69684 15.8627 8.03005 15.8632H8.03349C12.424 15.8632 15.9981 12.3188 16 7.9631C16.0007 5.85206 15.1728 3.86714 13.6688 2.37391C12.1646 0.880709 10.1644 0.0579615 8.03349 0.0570269C3.64222 0.0570269 0.0686361 3.6009 0.0668902 7.9567Z" fill="black" fill-opacity="0.2"/>
<path d="M0.352765 7.87439C0.352364 9.21354 0.706022 10.5211 1.37856 11.6737L0.288422 15.6118L4.36178 14.5551C5.48404 15.1602 6.74757 15.4796 8.03352 15.48H8.03695C12.2716 15.48 15.7188 12.0707 15.7205 7.88031C15.7214 5.84972 14.9228 3.94038 13.472 2.50393C12.0214 1.06748 10.0922 0.275991 8.03667 0.275085C3.80147 0.275085 0.354482 3.68416 0.352765 7.87442" fill="url(#paint0_linear)"/>
<path d="M0.078308 7.87185C0.0777928 9.25932 0.444217 10.6137 1.14069 11.8076L0.0114746 15.8867L4.23097 14.7921C5.3935 15.4194 6.7024 15.75 8.03446 15.7505H8.0379C12.4246 15.7505 15.9955 12.2185 15.9974 7.87825C15.9981 5.77463 15.1709 3.79674 13.6682 2.30875C12.1654 0.820811 10.167 0.00100994 8.0379 4.76837e-05C3.6505 4.76837e-05 0.080054 3.5314 0.0782794 7.87185H0.078308ZM2.59104 11.602L2.43353 11.3545C1.77127 10.3127 1.42165 9.10869 1.42222 7.87239C1.42362 4.26472 4.39123 1.32971 8.04042 1.32971C9.80757 1.33042 11.4684 2.01189 12.7176 3.24862C13.9666 4.48526 14.654 6.12928 14.6535 7.87771C14.6519 11.4855 11.6842 14.4209 8.03792 14.4209H8.03535C6.84803 14.4203 5.68367 14.1049 4.66815 13.5087L4.42646 13.367L1.92254 14.0165L2.59104 11.602Z" fill="url(#paint1_linear)"/>
<path fill-rule="evenodd" clip-rule="evenodd" d="M6.04865 4.58099C5.89967 4.25335 5.74285 4.24675 5.60111 4.24101C5.48519 4.23611 5.35247 4.23642 5.21997 4.23642C5.08739 4.23642 4.8719 4.28569 4.68969 4.48258C4.50736 4.67948 3.99353 5.15544 3.99353 6.12351C3.99353 7.09169 4.70626 8.02708 4.80561 8.15847C4.90504 8.2897 6.18149 10.3397 8.20292 11.1284C9.88294 11.7839 10.2248 11.6535 10.5895 11.6207C10.9541 11.5879 11.7661 11.1448 11.9318 10.6854C12.0976 10.226 12.0976 9.83222 12.0479 9.7499C11.9981 9.66789 11.8656 9.6187 11.6667 9.5203C11.4677 9.4219 10.49 8.94582 10.3077 8.88024C10.1253 8.81465 9.99274 8.78186 9.86016 8.97884C9.72755 9.17565 9.34667 9.6187 9.23058 9.74993C9.11457 9.88141 8.99856 9.8978 8.79964 9.7994C8.60074 9.70071 7.9602 9.49314 7.20033 8.82286C6.60911 8.30136 6.20999 7.65731 6.0939 7.46033C5.9779 7.26352 6.08151 7.15693 6.18126 7.05884C6.27056 6.97069 6.38018 6.82919 6.47962 6.71427C6.57885 6.59939 6.61203 6.51738 6.67831 6.38618C6.7446 6.25479 6.71146 6.13988 6.66174 6.0415C6.61202 5.9431 6.22551 4.97002 6.04865 4.58099Z" fill="white"/>
<defs>
<linearGradient id="paint0_linear" x1="8.00443" y1="15.6118" x2="8.00443" y2="0.275071" gradientUnits="userSpaceOnUse">
<stop stop-color="#20B038"/>
<stop offset="1" stop-color="#60D66A"/>
</linearGradient>
<linearGradient id="paint1_linear" x1="8.00446" y1="15.8868" x2="8.00446" y2="5.56203e-05" gradientUnits="userSpaceOnUse">
<stop stop-color="#F9F9F9"/>
<stop offset="1" stop-color="white"/>
</linearGradient>
</defs>
</svg>
